<?xml version="1.0" encoding="UTF-8" standalone="no"?>
<!DOCTYPE svg PUBLIC "-//W3C//DTD SVG 1.1//EN" "http://www.w3.org/Graphics/SVG/1.1/DTD/svg11.dtd">
<svg version="1.1" xmlns="http://www.w3.org/2000/svg" xmlns:xlink="http://www.w3.org/1999/xlink" preserveAspectRatio="xMidYMid meet" viewBox="0 0 600 360" width="600" height="360"><defs><path d="M284.91 4.31C290.53 4.31 295.09 8.87 295.09 14.5C295.09 81.7 295.09 273.13 295.09 340.34C295.09 345.96 290.53 350.52 284.91 350.52C229.15 350.52 72.04 350.52 16.28 350.52C10.65 350.52 6.09 345.96 6.09 340.34C6.09 273.13 6.09 81.7 6.09 14.5C6.09 8.87 10.65 4.31 16.28 4.31C72.04 4.31 229.15 4.31 284.91 4.31Z" id="a1kVHrENlg"></path><path d="M583.82 4.31C589.44 4.31 594 8.87 594 14.5C594 81.7 594 273.13 594 340.34C594 345.96 589.44 350.52 583.82 350.52C528.05 350.52 370.95 350.52 315.18 350.52C309.56 350.52 305 345.96 305 340.34C305 273.13 305 81.7 305 14.5C305 8.87 309.56 4.31 315.18 4.31C370.95 4.31 528.05 4.31 583.82 4.31Z" id="bGWYmn4aR"></path><path d="M289.96 4.31C295.51 4.31 300 8.81 300 14.35C300 80.58 300 269.25 300 335.49C300 341.03 295.51 345.52 289.96 345.52C234.17 345.52 76.83 345.52 21.04 345.52C15.49 345.52 11 341.03 11 335.49C11 269.25 11 80.58 11 14.35C11 8.81 15.49 4.31 21.04 4.31C76.83 4.31 234.17 4.31 289.96 4.31Z" id="b2HpTBFZGg"></path><path d="M579.07 4.31C584.59 4.31 589.07 8.79 589.07 14.31C589.07 80.31 589.07 268.31 589.07 334.31C589.07 339.84 584.59 344.31 579.07 344.31C523.27 344.31 365.87 344.31 310.07 344.31C304.55 344.31 300.07 339.84 300.07 334.31C300.07 268.31 300.07 80.31 300.07 14.31C300.07 8.79 304.55 4.31 310.07 4.31C365.87 4.31 523.27 4.31 579.07 4.31Z" id="b1jjUFmCrR"></path><path d="M25.5 25.81L300 25.81L300 331.31L25.5 331.31L25.5 25.81Z" id="a59Yyd162"></path><path d="M299 28.06L572 28.06L572 331.56L299 331.56L299 28.06Z" id="b3N7bF3w8E"></path><path d="M304.5 22.06L569 22.06L569 327.56L304.5 327.56L304.5 22.06Z" id="a32GfMPWLu"></path><path d="M30.05 22.06L300.05 22.06L300.05 328.06L30.05 328.06L30.05 22.06Z" id="eiB60R6Ka"></path><path d="M34 17.31L284 17.31L284 321.81L34 321.81L34 17.31Z" id="cPIJ1eTFO"></path><path d="M314 17.06L564 17.06L564 321.56L314 321.56L314 17.06Z" id="fJWaZP9f"></path><path d="M284 17.31L299 27.79L284 27.79L284 17.31Z" id="b34XRJZaTN"></path><path d="M314 17.31L299 27.79L314 27.79L314 17.31Z" id="a7It36NCSr"></path><path d="M299 331.48L283.92 321.48L299 321.48L299 331.48Z" id="boVvnyPuS"></path><path d="M299 331.65L314 320.65L299 320.65L299 331.65Z" id="a136BWG5UI"></path><path d="M284 27.31L314 27.31L314 321.31L284 321.31L284 27.31Z" id="cfEALOsnb"></path><path d="M300.43 331.31L275 353.43L300.43 353.43L300.43 331.31Z" id="aIJpBX5xq"></path><path d="M299 331.31L324.43 353.44L299 353.44L299 331.31Z" id="a19Jq8C3gg"></path><path d="M274.9 353.4L324.48 353.4L324.48 358.2L274.9 358.2L274.9 353.4Z" id="b3QSZZ0DT2"></path><path d="M306.5 22.56L314 17.31L299 17.31L284 17.31L291.5 22.56L299 27.81L306.5 22.56Z" id="byb1gipx4"></path><path d="M306.88 333.57L314.75 328.34L299 328.34L283.25 328.34L291.12 333.57L299 338.81L306.88 333.57Z" id="a3mZGOCim2"></path><path d="M306.88 328.78L314.75 321.57L299 321.57L283.25 321.57L291.12 328.78L299 335.98L306.88 328.78Z" id="d25lbV0aUl"></path><path d="M307.38 326.3L315.25 321.06L299.5 321.06L283.75 321.06L291.62 326.3L299.5 331.54L307.38 326.3Z" id="gG6qtQKeF"></path><path d="M284 17.98L300.67 27.57L284 27.57L284 17.98Z" id="bbfNI2SX1"></path><path d="M314 16.57L300.5 27.31L314 27.31L314 16.57Z" id="b92b3kVAYQ"></path><path d="M284 27.06L300.3 27.06L300.3 321.56L284 321.56L284 27.06Z" id="b709pZAck"></path><path d="M297.95 27.06L314 27.06L314 321.56L297.95 321.56L297.95 27.06Z" id="aovUXmLDb"></path><path d="M277.16 18.23L284 18.23L284 321.73L277.16 321.73L277.16 18.23Z" id="a29H2xLHWc"></path><path d="M314 16.81L320.84 16.81L320.84 321.81L314 321.81L314 16.81Z" id="b22h9yeIq"></path></defs><g><g><g><use xlink:href="#a1kVHrENlg" opacity="1" fill="#4a261d" fill-opacity="1"></use></g><g><use xlink:href="#bGWYmn4aR" opacity="1" fill="#4a261d" fill-opacity="1"></use></g><g><use xlink:href="#b2HpTBFZGg" opacity="1" fill="#693629" fill-opacity="1"></use></g><g><use xlink:href="#b1jjUFmCrR" opacity="1" fill="#693629" fill-opacity="1"></use></g><g><use xlink:href="#a59Yyd162" opacity="1" fill="#aeaaaa" fill-opacity="1"></use></g><g><use xlink:href="#b3N7bF3w8E" opacity="1" fill="#aeaaaa" fill-opacity="1"></use></g><g><use xlink:href="#a32GfMPWLu" opacity="1" fill="#dfdfdf" fill-opacity="1"></use></g><g><use xlink:href="#eiB60R6Ka" opacity="1" fill="#dfdfdf" fill-opacity="1"></use></g><g><use xlink:href="#cPIJ1eTFO" opacity="1" fill="#ffffff" fill-opacity="1"></use></g><g><use xlink:href="#fJWaZP9f" opacity="1" fill="#ffffff" fill-opacity="1"></use></g><g><use xlink:href="#b34XRJZaTN" opacity="1" fill="#ffffff" fill-opacity="1"></use></g><g><use xlink:href="#a7It36NCSr" opacity="1" fill="#ffffff" fill-opacity="1"></use></g><g><use xlink:href="#boVvnyPuS" opacity="1" fill="#ffffff" fill-opacity="1"></use></g><g><use xlink:href="#a136BWG5UI" opacity="1" fill="#ffffff" fill-opacity="1"></use></g><g><use xlink:href="#cfEALOsnb" opacity="1" fill="#ffffff" fill-opacity="1"></use><g><use xlink:href="#cfEALOsnb" opacity="1" fill-opacity="0" stroke="#ffffff" stroke-width="1" stroke-opacity="1"></use></g></g><g><use xlink:href="#aIJpBX5xq" opacity="1" fill="#693629" fill-opacity="1"></use></g><g><use xlink:href="#a19Jq8C3gg" opacity="1" fill="#693629" fill-opacity="1"></use></g><g><use xlink:href="#b3QSZZ0DT2" opacity="1" fill="#4a261d" fill-opacity="1"></use><g><use xlink:href="#b3QSZZ0DT2" opacity="1" fill-opacity="0" stroke="#d34b43" stroke-width="0" stroke-opacity="1"></use></g></g><g><use xlink:href="#byb1gipx4" opacity="1" fill="#693629" fill-opacity="1"></use></g><g><use xlink:href="#a3mZGOCim2" opacity="1" fill="#aeaaaa" fill-opacity="1"></use></g><g><use xlink:href="#d25lbV0aUl" opacity="1" fill="#dfdfdf" fill-opacity="1"></use></g><g><use xlink:href="#gG6qtQKeF" opacity="1" fill="#eae0d6" fill-opacity="1"></use></g><g><use xlink:href="#bbfNI2SX1" opacity="1" fill="#eae0d6" fill-opacity="1"></use></g><g><use xlink:href="#b92b3kVAYQ" opacity="1" fill="#eae0d6" fill-opacity="1"></use></g><g><use xlink:href="#b709pZAck" opacity="1" fill="#eae0d6" fill-opacity="1"></use></g><g><use xlink:href="#aovUXmLDb" opacity="1" fill="#eae0d6" fill-opacity="1"></use></g><g><use xlink:href="#a29H2xLHWc" opacity="1" fill="#f3eee8" fill-opacity="1"></use></g><g><use xlink:href="#b22h9yeIq" opacity="1" fill="#f3eee8" fill-opacity="1"></use></g></g></g></svg>